<?xml version="1.0" standalone="no"?>
<!DOCTYPE svg PUBLIC "-//W3C//DTD SVG 20010904//EN"
 "http://www.w3.org/TR/2001/REC-SVG-20010904/DTD/svg10.dtd">
<svg version="1.0" xmlns="http://www.w3.org/2000/svg"
 width="700.000000pt" height="700.000000pt" viewBox="0 0 700.000000 700.000000"
 preserveAspectRatio="xMidYMid meet">
<metadata>
Created by potrace 1.14, written by Peter Selinger 2001-2017
</metadata>
<g transform="translate(0.000000,700.000000) scale(0.100000,-0.100000)"
fill="#000000" stroke="none">
<path d="M1255 6993 c-138 -12 -350 -75 -485 -143 -386 -196 -644 -533 -742
-971 l-23 -104 0 -2275 0 -2275 23 -104 c128 -568 527 -968 1095 -1093 l102
-23 2275 0 2275 0 102 23 c566 125 970 529 1095 1095 l23 102 0 2275 0 2275
-23 102 c-97 438 -360 782 -747 975 -93 47 -197 84 -325 116 l-105 27 -2250 1
c-1237 0 -2268 -1 -2290 -3z m3097 -1028 c189 -40 365 -172 439 -330 149 -316
-63 -732 -406 -796 -70 -13 -257 -7 -298 10 l-28 11 46 53 c59 67 140 226 161
313 11 47 15 95 11 149 -10 166 -96 257 -228 242 -230 -27 -484 -408 -608
-912 -26 -104 -81 -388 -81 -416 0 -21 2 -21 108 -14 198 12 354 53 465 119
l57 35 6 -25 c4 -14 4 -82 2 -152 -6 -163 -26 -229 -88 -294 -69 -71 -109 -80
-380 -86 l-226 -4 -28 -214 c-56 -432 -99 -816 -132 -1179 -21 -234 -30 -872
-15 -1015 6 -58 23 -178 37 -268 15 -90 24 -165 22 -167 -7 -8 -123 41 -205
85 -229 123 -366 304 -441 578 -25 93 -26 108 -26 352 0 328 29 659 110 1250
54 392 72 535 67 539 -14 16 -310 -69 -453 -130 l-65 -28 -8 42 c-5 23 -6 89
-3 147 9 215 83 316 272 376 41 13 119 29 172 35 53 6 116 13 138 15 l42 5 22
97 c100 446 267 846 459 1097 173 227 469 422 721 476 106 22 265 24 362 4z"/>
</g>
</svg>
