<svg xmlns="http://www.w3.org/2000/svg" viewBox="0 0 100 100"><rect width="100" height="100" fill="#851f1b" rx="20" style="--darkreader-inline-fill:#231683"/><path fill="#fff" d="M57.04 36.66q.14 1.4.14 2.11 0 3.36-1.2 4.65-1.18 1.29-4.16 1.29-2.98 0-4.59-.07-2.72 19.89-2.72 28.5 0 4.13.17 5.98.18 1.86.95 6.33-5.04-1.61-7.43-5.21-2.37-3.6-2.37-8.51 0-7.34 2.1-21.7.49-3.64.62-4.83-3.71.63-7.55 2.38-.14-1.53-.14-2.31 0-3.78 2.3-5.11 2.32-1.32 6.66-1.39 1.4-6.87 3.74-11.84 2.35-4.97 5.14-7.49 5.33-4.9 11.14-4.9 3.92 0 6.61 2.35 2.7 2.34 2.7 5.74 0 3.39-2.31 5.91t-6.09 2.52q-1.47 0-2.87-.49 1.12-.84 2.2-2.94 1.09-2.1 1.09-3.95 0-1.86-.81-2.91-.8-1.05-2.13-1.05-2.87 0-5.85 4.8-2.97 4.79-4.44 14.46 6.23 0 9.1-2.32Z" style="--darkreader-inline-fill:#181a1b"/></svg>